# Blender v2.79 (sub 0) OBJ File: 'rocks.blend'
# www.blender.org
mtllib rock3.mtl
o Stein3_Icosphere.003
v 0.058799 -0.686004 0.106120
v 0.682161 -0.305698 0.631840
v -0.217586 -0.305698 1.087285
v -1.150043 -0.281589 0.164052
v -0.217586 -0.305698 -0.744520
v 0.782399 -0.305698 -0.419600
v 0.083908 0.631436 0.604238
v -0.871850 0.529579 0.467389
v -0.664801 0.467726 -0.228286
v 0.335184 0.547524 -0.813087
v 0.953224 0.588732 0.106120
v 0.058799 1.043428 0.106120
v 0.196991 0.820187 -0.353484
v 0.568358 0.568128 -0.353484
vt 0.188682 0.087134
vt 0.239618 0.086009
vt 0.222310 0.136348
vt 0.347892 0.105695
vt 0.296957 0.106820
vt 0.309431 0.066486
vt 0.148377 0.142019
vt 0.148377 0.074842
vt 0.359179 0.128964
vt 0.359179 0.180517
vt 0.303230 0.132167
vt 0.343015 0.097123
vt 0.285753 0.065730
vt 0.343015 0.034879
vt 0.232105 0.105606
vt 0.237598 0.164101
vt 0.180579 0.159806
vt 0.166963 0.064631
vt 0.153047 0.102789
vt 0.225319 0.116895
vt 0.225319 0.183965
vt 0.183215 0.152140
vt 0.288068 0.200638
vt 0.185255 0.215735
vt 0.092437 0.198730
vt 0.042471 0.200862
vt 0.050333 0.166905
vt 0.173701 0.095247
vt 0.113779 0.174541
vt 0.037038 0.164480
vt 0.069630 0.133968
vt 0.113779 0.105789
vt 0.141654 0.178329
vt 0.067911 0.164952
vt 0.060049 0.198908
vt 0.025575 0.153007
vt 0.058397 0.111964
vt 0.067911 0.168858
vt 0.025575 0.156913
vt 0.040646 0.134438
vt 0.032659 0.118886
vt 0.029981 0.075130
vn 0.2041 -0.8920 0.4033
vn 0.4912 -0.8698 0.0468
vn -0.2935 -0.9163 0.2725
vn -0.3156 -0.9003 -0.3000
vn 0.1438 -0.8852 -0.4425
vn 0.9667 -0.2388 0.0922
vn 0.4308 0.3001 0.8511
vn -0.7037 -0.0242 0.7101
vn -0.6949 0.0755 -0.7151
vn 0.2978 -0.2666 -0.9166
vn 0.4813 0.3312 0.8116
vn -0.1746 0.4949 0.8512
vn -0.8652 0.4065 -0.2936
vn -0.5029 0.2595 -0.8245
vn 0.8011 0.2378 -0.5493
vn 0.3687 0.7253 0.5813
vn -0.1711 0.7550 0.6331
vn -0.5377 0.8106 -0.2321
vn -0.3864 0.7582 -0.5252
vn 0.5346 0.7876 -0.3065
vn 0.5469 0.8058 -0.2270
vn 0.4179 0.8220 -0.3868
usemtl Material.001
s off
f 1/1/1 2/2/1 3/3/1
f 2/4/2 1/5/2 6/6/2
f 1/1/3 3/3/3 4/7/3
f 1/1/4 4/7/4 5/8/4
f 1/9/5 5/10/5 6/11/5
f 2/12/6 6/13/6 11/14/6
f 3/15/7 2/16/7 7/17/7
f 4/18/8 3/15/8 8/19/8
f 5/20/9 4/21/9 9/22/9
f 6/11/10 5/10/10 10/23/10
f 2/16/11 11/24/11 7/17/11
f 3/15/12 7/17/12 8/19/12
f 4/25/13 8/26/13 9/27/13
f 5/20/14 9/22/14 10/28/14
f 6/29/15 10/30/15 14/31/15 11/32/15
f 7/17/16 11/24/16 12/33/16
f 8/19/17 7/17/17 12/33/17
f 9/34/18 8/35/18 12/36/18
f 10/37/19 9/38/19 12/39/19 13/40/19
f 10/30/20 13/41/20 14/31/20
f 13/41/21 12/42/21 14/31/21
f 14/31/22 12/42/22 11/32/22
