# Blender v2.79 (sub 0) OBJ File: 'rocks.blend'
# www.blender.org
mtllib rock4.mtl
o Stein4_Icosphere.004
v 0.062566 -0.624791 0.038530
v 0.723600 -0.447215 0.525720
v -0.306412 -0.447215 0.831721
v -0.894425 -0.447215 0.000000
v -0.276385 0.234065 -0.850640
v 0.723600 -0.447215 -0.525720
v 0.276385 0.320593 0.936401
v -0.723600 0.447215 0.625775
v -0.723600 0.447215 -0.525720
v 0.276385 0.447215 -0.850640
v 0.894425 0.307517 0.000000
v 0.000000 0.695673 0.000000
v 0.585405 0.350718 0.425320
v 0.585405 0.567545 -0.425320
v 0.138193 0.638908 0.425320
v 0.447212 0.542452 0.000000
v 0.138193 0.693045 -0.425320
v 0.000000 -0.063311 0.943548
vt 0.342339 0.104891
vt 0.312388 0.115179
vt 0.342005 0.061322
vt 0.364058 0.141370
vt 0.347641 0.166786
vt 0.330625 0.124850
vt 0.364058 0.197938
vt 0.332057 0.214419
vt 0.463906 0.149734
vt 0.448322 0.197367
vt 0.406706 0.153510
vt 0.455915 0.122492
vt 0.398716 0.126268
vt 0.438900 0.080556
vt 0.432862 0.048139
vt 0.462798 0.063261
vt 0.431264 0.081179
vt 0.292787 0.061490
vt 0.316609 0.060408
vt 0.461678 0.169022
vt 0.461678 0.228698
vt 0.412151 0.221660
vt 0.434610 0.156611
vt 0.476225 0.200468
vt 0.434333 0.184366
vt 0.397554 0.098667
vt 0.300538 0.080092
vt 0.320139 0.133781
vt 0.292766 0.107055
vt 0.472221 0.089226
vt 0.446826 0.088312
vt 0.450030 0.050331
vt 0.233799 0.142668
vt 0.184272 0.195307
vt 0.175133 0.114115
vt 0.412669 0.074182
vt 0.434827 0.015745
vt 0.420400 0.046734
vt 0.416616 0.043093
vt 0.448150 0.025175
vt 0.428896 0.064500
vt 0.159056 0.122183
vt 0.183702 0.105049
vt 0.187359 0.131099
vt 0.076071 0.122575
vt 0.042364 0.163192
vt 0.055592 0.114047
vt 0.096027 0.164582
vt 0.434827 0.045980
vt 0.167788 0.087623
vt 0.191027 0.106203
vt 0.170666 0.113615
vt 0.214816 0.131753
vt 0.236453 0.150214
vt 0.216497 0.157656
vt 0.192303 0.132076
vt 0.421211 0.106088
vt 0.096027 0.115133
vt 0.027289 0.105131
vt 0.190268 0.074288
vt 0.209065 0.056913
vt 0.210747 0.082816
vt 0.171857 0.109397
vt 0.168200 0.083347
vt 0.190654 0.092021
vt 0.177501 0.101949
vt 0.197078 0.084632
vt 0.199955 0.110624
vt 0.448150 0.071543
vt 0.287470 0.133781
vt 0.432118 0.066372
vt 0.428914 0.104354
vt 0.405092 0.105435
vn 0.0745 -0.9652 0.2507
vn 0.2594 -0.9658 0.0000
vn -0.1860 -0.9737 0.1315
vn -0.1096 -0.7355 -0.6686
vn -0.3104 -0.7401 -0.5966
vn 0.9753 -0.2208 0.0000
vn 0.3161 -0.3596 0.8779
vn -0.7925 -0.2407 0.5603
vn -0.6491 -0.2895 -0.7035
vn 0.1116 -0.2895 -0.9506
vn 0.8314 0.2088 0.5150
vn -0.3810 0.0350 0.9239
vn -0.9822 0.1876 0.0000
vn -0.2411 0.6254 -0.7421
vn 0.8432 0.1654 -0.5115
vn 0.5068 0.7865 0.3528
vn -0.1722 0.9675 0.1851
vn -0.3248 0.9458 0.0000
vn -0.1737 0.8271 -0.5345
vn 0.4557 0.8675 0.1993
vn 0.3225 0.9414 0.0990
vn 0.2674 0.9529 0.1431
vn 0.2447 0.8718 -0.4244
vn -0.2633 0.9604 -0.0915
vn -0.0613 0.8397 0.5396
vn 0.3240 0.9458 0.0209
vn 0.5309 0.8238 0.1989
vn 0.4514 0.8593 0.2407
vn 0.7749 0.1659 -0.6099
vn 0.8011 0.2093 0.5608
vn -0.2659 0.2089 0.9411
usemtl Material.001
s off
f 1/1/1 2/2/1 3/3/1
f 2/4/2 1/5/2 6/6/2
f 1/5/3 3/7/3 4/8/3
f 1/9/4 4/10/4 5/11/4
f 1/12/5 5/13/5 6/14/5
f 2/15/6 6/16/6 11/17/6
f 3/3/7 2/2/7 7/18/7 18/19/7
f 4/20/8 3/21/8 8/22/8
f 5/23/9 4/24/9 9/25/9
f 6/14/10 5/13/10 10/26/10
f 7/27/11 2/28/11 13/29/11
f 3/30/12 18/31/12 8/32/12
f 4/33/13 8/34/13 9/35/13
f 5/36/14 9/37/14 10/38/14
f 11/39/15 6/40/15 14/41/15
f 7/42/16 13/43/16 15/44/16
f 12/45/17 8/46/17 15/47/17
f 9/48/18 8/46/18 12/45/18
f 10/38/19 9/37/19 17/49/19
f 11/50/20 14/51/20 16/52/20
f 16/53/21 17/54/21 12/55/21
f 16/52/22 14/51/22 17/56/22
f 14/57/23 10/38/23 17/49/23
f 9/48/24 12/45/24 17/58/24
f 8/46/25 7/59/25 15/47/25
f 15/60/26 16/61/26 12/62/26
f 15/63/27 13/64/27 16/65/27
f 13/66/28 11/67/28 16/68/28
f 6/40/29 10/69/29 14/41/29
f 2/28/30 11/70/30 13/29/30
f 8/71/31 18/72/31 7/73/31
