# Blender v2.79 (sub 0) OBJ File: 'startmenu_grass.blend'
# www.blender.org
mtllib startmenu_grassplant.mtl
o Circle
v 3.758207 4.491751 -2.199206
v 4.300099 4.510589 -1.510121
v 5.169866 4.506014 -1.519302
v 5.738848 4.519775 -2.177300
v 3.749421 6.122986 -1.959052
v 4.296694 6.128702 -1.306714
v 5.167130 6.136244 -1.327065
v 5.709655 6.136689 -1.991586
v 3.913442 6.723647 -1.834524
v 4.371447 6.721925 -1.244960
v 5.118282 6.729251 -1.218647
v 5.573194 6.725764 -1.827200
v 4.111804 7.270751 -1.615609
v 4.461594 7.272230 -1.181996
v 5.020082 7.265856 -1.174906
v 5.360548 7.267189 -1.618499
v 4.295630 7.810035 -1.384338
v 4.552399 7.814330 -1.082530
v 4.934750 7.812598 -1.078150
v 5.192322 7.807488 -1.382232
v 4.575610 8.299032 -0.953291
v 4.666574 8.300493 -0.847540
v 4.812401 8.300640 -0.848966
v 4.908935 8.304196 -0.955236
v 4.717186 8.467741 -0.786741
v 4.730113 8.468214 -0.769717
v 4.750756 8.468090 -0.769204
v 4.765722 8.467426 -0.782331
v 4.032405 4.508753 -1.849673
v 4.744152 4.505701 -1.520432
v 5.423948 4.508434 -1.880659
v 4.015181 6.121734 -1.636718
v 4.734888 6.117498 -1.285795
v 5.437808 6.133523 -1.666183
v 5.175465 5.322766 -1.419624
v 5.734580 5.315516 -2.082711
v 4.289358 5.333026 -1.366814
v 3.697240 5.312801 -2.046538
v 4.131619 6.727090 -1.526423
v 4.742259 6.725645 -1.216595
v 5.337269 6.726851 -1.528078
v 5.141973 6.427031 -1.276472
v 5.652300 6.427911 -1.898385
v 4.343204 6.428415 -1.278084
v 3.832188 6.421079 -1.904963
v 4.277286 7.272701 -1.389681
v 4.738536 7.267439 -1.190550
v 5.189169 7.271724 -1.400009
v 5.065351 6.995722 -1.200683
v 5.483557 7.000833 -1.704357
v 4.415771 6.998074 -1.204251
v 4.006143 6.999246 -1.720604
v 4.417564 7.808732 -1.229810
v 4.744556 7.805875 -1.063838
v 5.062460 7.805577 -1.232807
v 4.981072 7.535978 -1.122458
v 5.282228 7.539594 -1.493608
v 4.508241 7.542890 -1.135206
v 4.207956 7.536524 -1.500060
v 4.623573 8.301115 -0.906084
v 4.741474 8.302588 -0.848458
v 4.856164 8.301819 -0.906638
v 4.874987 8.057229 -0.970040
v 5.053830 8.059329 -1.168918
v 4.608939 8.053956 -0.967980
v 4.426602 8.057987 -1.170352
v 4.724458 8.467640 -0.778586
v 4.740621 8.467672 -0.770864
v 4.756679 8.467634 -0.778556
v 4.782711 8.382579 -0.805736
v 4.829239 8.383822 -0.873828
v 4.700401 8.384639 -0.810752
v 4.649450 8.384928 -0.875333
v 5.391612 5.320926 -1.789913
v 4.735974 5.327960 -1.425634
v 4.073183 5.318841 -1.785968
v 5.388649 6.422439 -1.538700
v 4.722012 6.420107 -1.275374
v 4.112254 6.430019 -1.582533
v 5.234325 6.990193 -1.423837
v 4.690397 6.998852 -1.204796
v 4.254648 7.001140 -1.439853
v 5.100718 7.534087 -1.295187
v 4.700027 7.533249 -1.120795
v 4.377714 7.533529 -1.279666
v 4.912475 8.060923 -1.030073
v 4.681165 8.052557 -0.960383
v 4.560034 8.053526 -1.017420
v 4.789600 8.383322 -0.813858
v 4.709315 8.384104 -0.809725
v 4.693972 8.383882 -0.817231
vt 0.913047 0.863102
vt 0.928163 0.844054
vt 0.928626 0.864091
vt 0.893439 0.862130
vt 0.903592 0.842440
vt 0.903595 0.862701
vt 0.988065 0.862613
vt 0.966078 0.847185
vt 0.981159 0.842826
vt 0.913223 0.822936
vt 0.924930 0.816644
vt 0.928545 0.824017
vt 0.972870 0.824140
vt 0.979154 0.815055
vt 0.982958 0.821995
vt 0.958147 0.820107
vt 0.970839 0.816834
vt 0.911166 0.808194
vt 0.920261 0.802401
vt 0.924523 0.809151
vt 0.968608 0.809733
vt 0.973010 0.801466
vt 0.977249 0.807541
vt 0.883647 0.807780
vt 0.872704 0.803341
vt 0.882171 0.800941
vt 0.909592 0.794922
vt 0.915594 0.788729
vt 0.919553 0.795442
vt 0.984279 0.816266
vt 0.984279 0.823265
vt 0.978299 0.817867
vt 0.965245 0.796221
vt 0.957696 0.791347
vt 0.964042 0.789454
vt 0.906886 0.781298
vt 0.905910 0.775117
vt 0.913949 0.781936
vt 0.962924 0.782641
vt 0.965799 0.775668
vt 0.967633 0.781715
vt 0.961740 0.776667
vt 0.964037 0.776061
vt 0.899524 0.768776
vt 0.898332 0.766660
vt 0.902084 0.768917
vt 0.995075 0.826410
vt 0.994486 0.828455
vt 0.993394 0.826233
vt 0.965237 0.769277
vt 0.965548 0.767014
vt 0.965841 0.766918
vt 0.913198 0.842978
vt 0.892048 0.841755
vt 0.973737 0.866399
vt 0.912258 0.815712
vt 0.899628 0.823163
vt 0.897597 0.815857
vt 0.905911 0.814079
vt 0.958551 0.828048
vt 0.910395 0.801608
vt 0.967132 0.802894
vt 0.956262 0.812810
vt 0.957665 0.805295
vt 0.908198 0.788184
vt 0.968649 0.788587
vt 0.956020 0.798607
vt 0.903416 0.775038
vt 0.956367 0.784489
vt 0.897954 0.766654
vt 0.966065 0.766877
vt 0.962822 0.769892
vt 0.963107 0.767624
vt 0.965768 0.764761
vt 0.960622 0.770515
vt 0.966675 0.764531
vt 0.966930 0.764458
vt 0.988326 0.828246
vt 0.988326 0.830349
vt 0.988065 0.830312
vt 0.896916 0.764495
vt 0.897220 0.764517
vt 0.896529 0.764458
vt 0.954944 0.778317
vt 0.949817 0.786164
vt 0.966797 0.768850
vt 0.968333 0.768533
vt 0.995075 0.820135
vt 0.904601 0.769018
vt 0.948430 0.793688
vt 0.946767 0.801077
vt 0.901884 0.787975
vt 0.902234 0.781247
vt 0.920947 0.782347
vt 0.945239 0.808573
vt 0.943816 0.816159
vt 0.875354 0.800490
vt 0.873385 0.793989
vt 0.879852 0.792467
vt 0.971041 0.794965
vt 0.981163 0.809867
vt 0.929348 0.796203
vt 0.944076 0.824000
vt 0.944663 0.831633
vt 0.985234 0.805537
vt 0.937979 0.810069
vt 0.886791 0.818838
vt 0.871680 0.818791
vt 0.870163 0.798247
vt 0.951476 0.851074
vt 0.889183 0.839384
vt 0.874051 0.839691
vt 0.902401 0.822884
vt 0.943536 0.824924
vt 0.966132 0.764669
vt 0.966471 0.764565
vt 0.967763 0.766507
vt 0.900862 0.766820
vt 0.898818 0.774943
vt 0.870113 0.783643
vt 0.870979 0.777273
vt 0.876664 0.786136
vt 0.912862 0.775601
vt 0.974613 0.787090
vt 0.977508 0.793444
vt 0.978490 0.825018
vt 0.983628 0.825018
vt 0.983628 0.833128
vt 0.978299 0.827397
vt 0.925099 0.789211
vt 0.879593 0.806565
vt 0.883556 0.798603
vt 0.887577 0.804561
vt 0.981212 0.799579
vt 0.872023 0.812777
vt 0.882472 0.809624
vt 0.884582 0.817695
vt 0.933543 0.803005
vt 0.988065 0.812743
vt 0.940687 0.817564
vt 0.870160 0.820046
vt 0.884913 0.825657
vt 0.979671 0.767387
vt 0.969510 0.787892
vt 0.969971 0.767765
vt 0.979671 0.787628
vt 0.969549 0.807914
vt 0.943816 0.845167
vt 0.943816 0.864777
vn -0.8177 0.0316 -0.5748
vn -0.0218 0.1143 -0.9932
vn 0.8838 0.0915 -0.4589
vn -0.7732 0.1412 -0.6183
vn 0.0486 0.0364 -0.9982
vn 0.7948 -0.0657 -0.6033
vn -0.8133 -0.0904 -0.5748
vn 0.0756 0.0573 -0.9955
vn 0.8241 -0.0491 -0.5643
vn -0.7988 -0.0293 -0.6008
vn -0.0256 0.2503 -0.9678
vn 0.7423 -0.0121 -0.6699
vn -0.7687 0.0544 -0.6373
vn 0.1062 0.4076 -0.9070
vn 0.7003 0.1666 -0.6942
vn -0.7964 0.0367 -0.6036
vn -0.0229 0.4217 -0.9065
vn 0.7082 0.0238 -0.7056
vn -0.8615 0.0673 -0.5032
vn -0.1268 0.1687 -0.9775
vn 0.7852 0.0092 -0.6191
vn -0.7267 0.0562 -0.6846
vn 0.0092 0.0937 -0.9956
vn 0.7561 -0.1252 -0.6424
vn -0.7931 -0.1173 -0.5977
vn -0.0024 0.1462 -0.9893
vn 0.7530 -0.1346 -0.6441
vn -0.8221 -0.0082 -0.5693
vn 0.0818 0.1561 -0.9844
vn 0.7479 -0.0080 -0.6637
vn -0.8486 0.0262 -0.5283
vn 0.1033 0.4091 -0.9066
vn 0.7252 0.1592 -0.6699
vn -0.7639 0.0621 -0.6423
vn 0.1280 0.3536 -0.9266
vn 0.8047 -0.0494 -0.5916
vn 0.7938 0.0014 -0.6082
vn 0.7934 -0.0218 -0.6083
vn 0.6997 0.0455 -0.7130
vn 0.1346 0.3759 -0.9168
vn 0.1284 0.3782 -0.9168
vn -0.0728 0.4603 -0.8848
vn -0.3702 0.2321 -0.8995
vn -0.7611 -0.0259 -0.6481
vn -0.8434 -0.0888 -0.5298
vn 0.7496 0.1224 -0.6505
vn 0.7492 0.1279 -0.6499
vn 0.7800 0.1183 -0.6145
vn 0.0047 0.4076 -0.9131
vn 0.1039 0.3854 -0.9169
vn -0.0234 0.4432 -0.8961
vn -0.6674 0.2101 -0.7144
vn -0.8480 0.0709 -0.5252
vn -0.7940 0.0946 -0.6006
vn 0.7923 0.0042 -0.6102
vn 0.7910 -0.0473 -0.6099
vn 0.8064 -0.0351 -0.5903
vn -0.0809 0.2165 -0.9729
vn 0.0831 0.1908 -0.9781
vn 0.1029 0.1733 -0.9795
vn -0.7543 0.0442 -0.6550
vn -0.8219 0.0150 -0.5695
vn -0.7714 -0.0273 -0.6358
vn 0.7485 -0.0352 -0.6623
vn 0.7432 -0.1261 -0.6570
vn 0.8158 -0.0358 -0.5773
vn 0.0557 0.0429 -0.9975
vn -0.0021 0.0533 -0.9986
vn -0.0293 0.0857 -0.9959
vn -0.7854 -0.0740 -0.6145
vn -0.7958 -0.0768 -0.6007
vn -0.7963 -0.0762 -0.6001
vn 0.7547 -0.0504 -0.6541
vn 0.7510 -0.1224 -0.6489
vn 0.7676 -0.0982 -0.6333
vn -0.0072 0.1894 -0.9819
vn 0.0112 0.1882 -0.9821
vn 0.0748 0.1047 -0.9917
vn -0.7806 -0.1103 -0.6153
vn -0.7257 -0.0987 -0.6809
vn -0.8152 0.0466 -0.5773
vn 0.5683 0.0521 -0.8212
vn 0.5689 0.0360 -0.8216
vn 0.7711 0.1713 -0.6132
vn -0.1011 0.1734 -0.9797
vn -0.1267 0.1728 -0.9768
vn 0.0495 0.0748 -0.9960
vn -0.7606 0.1398 -0.6340
vn -0.8566 0.1249 -0.5006
vn -0.7798 0.0629 -0.6229
vn 0.8437 -0.0370 -0.5355
vn 0.7040 0.0698 -0.7068
vn 0.7461 0.0352 -0.6649
vn 0.0065 0.4685 -0.8835
vn 0.0578 0.4470 -0.8927
vn 0.0580 0.4104 -0.9100
vn -0.6775 0.0705 -0.7322
vn -0.8329 -0.0530 -0.5509
vn -0.8337 -0.0300 -0.5513
vn 0.8024 0.0998 -0.5883
vn 0.7041 0.1330 -0.6976
vn 0.6913 0.1412 -0.7086
vn -0.0828 0.3858 -0.9188
vn -0.0551 0.3741 -0.9258
vn -0.0553 0.4332 -0.8996
vn -0.7485 0.1379 -0.6487
vn -0.6915 0.1542 -0.7058
vn -0.6847 0.2052 -0.6994
vn 0.7373 0.0111 -0.6754
vn 0.7415 0.0142 -0.6709
vn 0.7850 -0.0015 -0.6195
vn 0.0555 0.1980 -0.9786
vn -0.0082 0.2527 -0.9675
vn -0.0074 0.1570 -0.9876
vn -0.7850 0.0571 -0.6169
vn -0.7380 0.0207 -0.6745
vn -0.7379 0.0326 -0.6741
vn 0.7460 -0.0709 -0.6622
vn 0.8251 0.0354 -0.5638
vn 0.8059 0.0419 -0.5906
vn -0.0061 0.0661 -0.9978
vn 0.0113 0.0453 -0.9989
vn 0.0117 0.0969 -0.9952
vn -0.7850 0.0207 -0.6192
vn -0.7467 -0.0289 -0.6645
vn -0.7390 -0.1281 -0.6614
vn 0.7612 -0.0000 -0.6486
vn 0.7953 0.0620 -0.6030
vn 0.8145 0.0560 -0.5774
vn -0.1008 0.1621 -0.9816
vn -0.0032 0.0343 -0.9994
vn -0.0057 0.1875 -0.9822
vn -0.7666 0.0538 -0.6399
vn -0.8014 0.1220 -0.5856
vn -0.8039 -0.0724 -0.5904
vn 0.7597 0.0420 -0.6489
vn 0.8769 0.1483 -0.4573
vn 0.7605 0.1714 -0.6263
vn 0.0025 0.1211 -0.9926
vn 0.0149 0.1147 -0.9933
vn 0.0149 0.1132 -0.9935
vn -0.6849 0.0824 -0.7239
vn -0.6476 0.0591 -0.7597
vn -0.6473 0.0646 -0.7595
usemtl None
s off
f 3/1/1 74/2/1 31/3/1
f 2/4/2 75/5/2 30/6/2
f 2/7/3 76/8/3 37/9/3
f 7/10/4 77/11/4 34/12/4
f 6/13/5 78/14/5 33/15/5
f 6/13/6 79/16/6 44/17/6
f 11/18/7 80/19/7 41/20/7
f 10/21/8 81/22/8 40/23/8
f 10/24/9 82/25/9 51/26/9
f 15/27/10 83/28/10 48/29/10
f 14/30/11 84/31/11 47/32/11
f 14/33/12 85/34/12 58/35/12
f 19/36/13 86/37/13 55/38/13
f 18/39/14 87/40/14 54/41/14
f 18/39/15 88/42/15 65/43/15
f 23/44/16 89/45/16 62/46/16
f 22/47/17 90/48/17 61/49/17
f 22/50/18 91/51/18 72/52/18
f 3/1/19 35/53/19 74/2/19
f 2/4/20 37/54/20 75/5/20
f 2/7/21 29/55/21 76/8/21
f 7/10/22 42/56/22 77/11/22
f 6/57/23 44/58/23 78/59/23
f 6/13/24 32/60/24 79/16/24
f 11/18/25 49/61/25 80/19/25
f 10/21/26 51/62/26 81/22/26
f 10/21/27 39/63/27 82/64/27
f 15/27/28 56/65/28 83/28/28
f 14/33/29 58/35/29 84/66/29
f 14/33/30 46/67/30 85/34/30
f 19/36/31 63/68/31 86/37/31
f 18/39/32 65/43/32 87/40/32
f 18/39/33 53/69/33 88/42/33
f 23/44/34 70/70/34 89/45/34
f 22/50/35 72/52/35 90/71/35
f 22/50/36 60/72/36 91/51/36
f 91/51/37 73/73/37 25/74/37
f 91/51/38 60/72/38 73/73/38
f 60/72/39 21/75/39 73/73/39
f 90/71/40 68/76/40 27/77/40
f 90/71/41 72/52/41 68/76/41
f 72/78/42 26/79/42 68/80/42
f 89/45/43 69/81/43 28/82/43
f 89/45/44 70/70/44 69/81/44
f 70/70/45 27/83/45 69/81/45
f 88/42/46 66/84/46 21/75/46
f 88/42/47 53/69/47 66/84/47
f 53/69/48 17/85/48 66/84/48
f 87/40/49 61/86/49 23/87/49
f 87/40/50 65/43/50 61/86/50
f 65/88/51 22/47/51 61/49/51
f 86/37/52 62/46/52 24/89/52
f 86/37/53 63/68/53 62/46/53
f 63/68/54 23/44/54 62/46/54
f 85/34/55 59/90/55 17/85/55
f 85/34/56 46/67/56 59/90/56
f 46/67/57 13/91/57 59/90/57
f 84/92/58 54/93/58 19/36/58
f 84/66/59 58/35/59 54/41/59
f 58/35/60 18/39/60 54/41/60
f 83/28/61 55/38/61 20/94/61
f 83/28/62 56/65/62 55/38/62
f 56/65/63 19/36/63 55/38/63
f 82/64/64 52/95/64 13/91/64
f 82/64/65 39/63/65 52/95/65
f 39/63/66 9/96/66 52/95/66
f 81/97/67 47/98/67 15/99/67
f 81/22/68 51/62/68 47/100/68
f 51/101/69 14/30/69 47/32/69
f 80/19/70 48/29/70 16/102/70
f 80/19/71 49/61/71 48/29/71
f 49/61/72 15/27/72 48/29/72
f 79/16/73 45/103/73 9/96/73
f 79/16/74 32/60/74 45/103/74
f 32/60/75 5/104/75 45/103/75
f 78/14/76 40/23/76 11/105/76
f 78/14/77 44/17/77 40/23/77
f 44/17/78 10/21/78 40/23/78
f 77/11/79 41/20/79 12/106/79
f 77/11/80 42/56/80 41/20/80
f 42/56/81 11/18/81 41/20/81
f 76/107/82 38/108/82 5/109/82
f 76/8/83 29/55/83 38/110/83
f 29/111/84 1/112/84 38/108/84
f 75/5/85 33/113/85 7/10/85
f 75/5/86 37/54/86 33/113/86
f 37/9/87 6/13/87 33/15/87
f 74/2/88 34/12/88 8/114/88
f 74/2/89 35/53/89 34/12/89
f 35/53/90 7/10/90 34/12/90
f 72/52/91 67/115/91 26/116/91
f 72/52/92 91/51/92 67/115/92
f 91/51/93 25/74/93 67/115/93
f 61/86/94 70/117/94 23/87/94
f 61/86/95 90/71/95 70/117/95
f 90/71/96 27/77/96 70/117/96
f 62/46/97 71/118/97 24/89/97
f 62/46/98 89/45/98 71/118/98
f 89/45/99 28/82/99 71/118/99
f 65/43/100 60/72/100 22/50/100
f 65/43/101 88/42/101 60/72/101
f 88/42/102 21/75/102 60/72/102
f 54/93/103 63/68/103 19/36/103
f 54/93/104 87/119/104 63/68/104
f 87/119/105 23/44/105 63/68/105
f 55/120/106 64/121/106 20/122/106
f 55/38/107 86/37/107 64/123/107
f 86/37/108 24/89/108 64/123/108
f 58/35/109 53/69/109 18/39/109
f 58/35/110 85/34/110 53/69/110
f 85/34/111 17/85/111 53/69/111
f 47/100/112 56/124/112 15/125/112
f 47/32/113 84/31/113 56/126/113
f 84/127/114 19/128/114 56/129/114
f 48/29/115 57/130/115 16/102/115
f 48/29/116 83/28/116 57/130/116
f 83/28/117 20/94/117 57/130/117
f 51/62/118 46/67/118 14/33/118
f 51/62/119 82/64/119 46/67/119
f 82/64/120 13/91/120 46/67/120
f 40/131/121 49/132/121 11/133/121
f 40/23/122 81/22/122 49/134/122
f 81/22/123 15/125/123 49/134/123
f 41/135/124 50/136/124 12/137/124
f 41/20/125 80/19/125 50/138/125
f 80/19/126 16/102/126 50/138/126
f 44/17/127 39/63/127 10/21/127
f 44/17/128 79/16/128 39/63/128
f 79/16/129 9/96/129 39/63/129
f 33/113/130 42/56/130 7/10/130
f 33/15/131 78/14/131 42/139/131
f 78/14/132 11/105/132 42/139/132
f 34/12/133 43/140/133 8/114/133
f 34/12/134 77/11/134 43/140/134
f 77/141/135 12/137/135 43/142/135
f 37/9/136 32/60/136 6/13/136
f 37/9/137 76/8/137 32/60/137
f 76/8/138 5/104/138 32/60/138
f 30/143/139 35/144/139 3/145/139
f 30/143/140 75/146/140 35/144/140
f 75/146/141 7/147/141 35/144/141
f 31/3/142 36/148/142 4/149/142
f 31/3/143 74/2/143 36/148/143
f 74/2/144 8/114/144 36/148/144
