# Blender v2.79 (sub 0) OBJ File: 'startmenu.blend'
# www.blender.org
mtllib woodtruss1.mtl
o Trunk2_Cube.001
v -0.190117 -1.819828 0.065141
v -0.197212 -1.022520 -0.151714
v -0.190117 -1.819828 -0.146597
v 0.021621 -1.819828 -0.146597
v 0.040561 -1.251777 -0.151714
v 0.021621 -1.819828 0.065141
v -0.196214 -1.049273 0.086943
v -0.197212 1.172827 -0.151713
v 0.040561 1.194147 -0.070370
v 0.040561 1.194147 -0.151713
v 0.040561 0.507661 0.086060
v 0.040561 0.658982 -0.151713
v 0.048674 0.646169 0.051514
v 0.040561 0.720014 0.086060
v 0.040561 1.041435 -0.078120
v 0.040561 1.194147 -0.004528
v -0.194158 0.536787 0.088762
v -0.197212 0.705527 0.086060
v 0.017083 1.165940 0.086060
v -0.197212 1.194147 0.086060
v 0.033548 1.176344 -0.037449
v 0.040561 1.041435 -0.111042
v -0.197212 1.194147 0.036076
v -0.197212 1.194147 -0.055588
v 0.040561 0.888723 -0.151713
v -0.194654 0.154344 0.088324
v 0.044536 0.169395 -0.158677
v 0.040561 0.098535 0.100810
v -0.194821 0.025593 0.088176
v 0.036583 0.035537 0.081184
v -0.186019 0.084257 0.080791
v -0.186778 0.053915 -0.135343
v -0.197212 0.001081 -0.151713
v 0.040561 0.069505 -0.151713
v 0.030263 0.108434 -0.136369
v 0.040561 -0.025347 0.086060
v -0.197212 0.116494 -0.151713
v 0.042485 0.103485 -0.025155
v -0.201289 -0.395908 0.063154
v -0.203135 -0.374252 -0.176252
v 0.034638 -0.309869 -0.176252
v 0.021707 -1.312288 0.069371
v 0.000970 -1.069892 0.025773
v 0.034638 -0.388903 0.061521
v -0.097622 -1.059583 0.085867
v -0.197212 0.644660 -0.151713
v -0.197212 0.580482 -0.110326
v -0.112659 0.309407 -0.151713
v -0.170181 0.380577 -0.142127
vt 0.828334 0.930382
vt 0.937584 0.942925
vt 0.828471 0.947210
vt 0.688741 0.946440
vt 0.683082 0.963711
vt 0.683480 0.946891
vt 0.936018 0.904760
vt 0.828831 0.926776
vt 0.828302 0.909961
vt 0.820497 0.965132
vt 0.815687 0.947769
vt 0.820497 0.948306
vt 0.683082 0.946104
vt 0.700678 0.929267
vt 0.700678 0.946095
vt 0.808573 0.928488
vt 0.815323 0.947356
vt 0.808561 0.947364
vt 0.933033 0.946124
vt 0.932977 0.965036
vt 0.828334 0.953576
vt 0.702455 0.945411
vt 0.808561 0.930042
vt 0.808561 0.948916
vt 0.938514 0.910614
vt 0.939511 0.916464
vt 0.936416 0.923652
vt 0.941679 0.964329
vt 0.938907 0.945869
vt 0.941679 0.944841
vt 0.938907 0.964575
vt 0.936164 0.963536
vt 0.938907 0.944841
vt 0.954049 0.943412
vt 0.952924 0.943169
vt 0.954049 0.923810
vt 0.939511 0.923654
vt 0.942464 0.906625
vt 0.942696 0.923654
vt 0.939336 0.913864
vt 0.938514 0.907998
vt 0.939511 0.911232
vt 0.824179 0.928465
vt 0.828334 0.945485
vt 0.820796 0.947350
vt 0.816559 0.928473
vt 0.814714 0.947398
vt 0.818064 0.946801
vt 0.939511 0.904770
vt 0.937518 0.904764
vt 0.943017 0.923432
vt 0.945506 0.904762
vt 0.945506 0.923420
vt 0.695525 0.961110
vt 0.695432 0.953825
vt 0.702404 0.965183
vt 0.822744 0.947650
vt 0.824245 0.947675
vt 0.820497 0.966508
vt 0.936164 0.965464
vt 0.935644 0.944841
vt 0.808706 0.909410
vt 0.827936 0.909953
vt 0.809423 0.910009
vt 0.809410 0.927171
vt 0.808561 0.928460
vt 0.828302 0.928460
vt 0.827432 0.927251
vt 0.952924 0.925721
vt 0.952924 0.944235
vt 0.952565 0.944616
vt 0.684285 0.927933
vt 0.808545 0.930042
vt 0.683557 0.928536
vt 0.683082 0.909466
vt 0.683985 0.910760
vt 0.702004 0.910429
vt 0.808561 0.909410
vt 0.808561 0.920029
vt 0.808210 0.928491
vt 0.808693 0.947860
vt 0.809005 0.966569
vt 0.808561 0.966260
vt 0.941565 0.925815
vt 0.941866 0.944841
vt 0.693138 0.965001
vt 0.686796 0.965299
vt 0.944298 0.960536
vt 0.952249 0.944616
vt 0.947702 0.958367
vt 0.811136 0.966149
vt 0.811198 0.947398
vt 0.815744 0.955606
vt 0.944298 0.942876
vt 0.695432 0.946571
vt 0.695432 0.965468
vt 0.950115 0.942704
vt 0.945347 0.939989
vt 0.950370 0.923810
vt 0.952249 0.966451
vt 0.817231 0.965122
vt 0.937252 0.923958
vt 0.936018 0.922375
vt 0.683082 0.929276
vt 0.939129 0.923714
vt 0.936018 0.904760
vt 0.939553 0.904760
vt 0.828334 0.928460
vt 0.942696 0.904760
vt 0.695475 0.946183
vt 0.698939 0.946144
vt 0.699402 0.949428
vt 0.702404 0.946104
vt 0.699897 0.965246
vt 0.698780 0.965046
vt 0.695575 0.965082
vt 0.827402 0.947398
vt 0.827402 0.966624
vt 0.826280 0.959886
vt 0.825789 0.964468
vt 0.823950 0.966566
vt 0.820747 0.947616
vt 0.936088 0.954844
vt 0.936164 0.946370
vt 0.693165 0.946104
vt 0.948861 0.915273
vt 0.945506 0.906676
vt 0.948861 0.904760
vt 0.944298 0.923810
vt 0.944298 0.925805
vt 0.700744 0.946870
vn -1.0000 -0.0082 0.0025
vn -0.9999 -0.0105 0.0028
vn -1.0000 -0.0089 0.0000
vn -0.0013 -0.0067 -1.0000
vn -0.0065 -0.0082 -0.9999
vn 0.0000 -0.0064 -1.0000
vn 0.9994 -0.0333 0.0000
vn 0.0000 -0.0283 0.9996
vn 0.0000 -1.0000 0.0000
vn -0.0893 0.9960 0.0000
vn 0.9966 -0.0694 -0.0442
vn 0.9918 0.1238 -0.0318
vn 1.0000 -0.0000 0.0000
vn 0.0409 0.2395 0.9700
vn 0.0257 -0.4213 0.9066
vn 0.1435 0.0184 0.9895
vn -0.0000 -0.0000 1.0000
vn 0.9819 -0.0487 0.1828
vn 0.0528 0.9495 0.3093
vn 0.0000 1.0000 0.0000
vn 0.9525 0.1322 -0.2744
vn 0.9987 0.0519 0.0000
vn 0.0299 0.8766 0.4804
vn 0.1053 0.8652 -0.4903
vn 0.0114 -0.0012 0.9999
vn -1.0000 -0.0025 0.0000
vn -1.0000 -0.0010 0.0067
vn -1.0000 -0.0021 0.0030
vn 0.0000 0.0000 -1.0000
vn 1.0000 0.0034 0.0062
vn 0.9999 0.0017 0.0138
vn 0.9999 -0.0000 0.0154
vn 0.0248 0.1212 0.9923
vn -0.9804 0.1968 -0.0103
vn -0.0909 0.3443 -0.9345
vn 0.9974 0.0673 0.0269
vn -0.0801 -0.1163 0.9900
vn -0.9871 -0.1579 0.0256
vn 0.0505 -0.3536 -0.9340
vn 0.9567 -0.2666 -0.1170
vn 0.9568 -0.2662 -0.1170
vn 0.9566 -0.2667 -0.1170
vn 0.0266 0.0815 0.9963
vn -0.9891 0.1463 -0.0171
vn -0.0895 0.3109 -0.9462
vn 0.9703 0.2365 0.0511
vn -0.0658 -0.2930 0.9538
vn -0.9916 -0.1254 0.0303
vn 0.0567 -0.2438 -0.9682
vn 0.9566 -0.2668 -0.1170
vn -1.0000 -0.0079 0.0041
vn -0.9999 -0.0089 0.0069
vn -0.0253 -0.0262 -0.9993
vn 0.9881 0.1048 0.1130
vn 0.0059 0.0351 0.9994
vn 0.0124 0.0361 0.9993
vn 0.0078 0.0354 0.9993
vn 0.0087 -0.0594 0.9982
vn -0.9998 0.0151 0.0089
vn -0.9998 0.0151 0.0090
vn -0.9998 0.0152 0.0091
vn -0.0184 0.0650 -0.9977
vn -0.0179 0.0653 -0.9977
vn -0.0187 0.0648 -0.9977
vn 0.9999 -0.0159 -0.0061
vn 0.9999 -0.0155 -0.0053
vn 0.9999 -0.0159 -0.0063
vn 0.9987 -0.0485 -0.0161
vn 0.5253 0.1940 0.8285
vn 0.0043 -0.0631 0.9980
vn -1.0000 -0.0078 0.0033
vn -0.0084 -0.0087 -0.9999
vn 0.9964 -0.0009 0.0847
vn 0.0704 -0.0083 0.9975
vn -0.0135 0.9762 -0.2165
vn 0.9628 0.0507 0.2653
vn 0.1305 0.9914 0.0000
vn -0.0445 0.0360 0.9984
vn -1.0000 -0.0000 0.0000
vn -1.0000 -0.0003 0.0025
vn -0.9999 -0.0010 0.0108
vn -0.9973 0.0012 0.0729
vn -0.9785 -0.0210 -0.2053
vn -0.0318 0.0140 -0.9994
vn -0.1644 0.0000 -0.9864
vn 1.0000 0.0080 0.0051
vn 0.9977 -0.0669 0.0126
vn 0.9999 -0.0002 0.0153
vn 0.0102 -0.0377 -0.9992
vn 0.0147 0.0365 0.9992
vn 0.5138 -0.0703 0.8550
vn -0.0056 -0.0673 0.9977
vn -0.9999 0.0148 0.0085
vn -0.0177 0.0655 -0.9977
vn 0.9999 -0.0153 -0.0051
vn 0.9784 0.0115 0.2064
vn -0.7619 0.0000 -0.6477
usemtl None.001
s 1
f 1/1/1 2/2/2 3/3/3
f 2/4/4 4/5/5 3/6/6
f 5/7/7 6/8/7 4/9/7
f 6/10/8 7/11/8 1/12/8
f 4/13/9 1/14/9 3/15/9
f 8/16/10 9/17/10 10/18/10
f 11/19/11 12/20/11 13/21/11
f 13/22/12 12/23/12 14/24/12
f 15/25/13 16/26/13 14/27/13
f 17/28/14 11/29/14 13/30/14
f 13/31/15 14/32/15 18/33/15
f 18/34/16 17/35/16 13/36/16
f 18/37/17 19/38/17 20/39/17
f 21/40/18 22/41/18 9/42/18
f 23/43/19 19/44/19 16/45/19
f 23/43/20 16/45/20 24/46/20
f 16/45/21 15/47/21 21/48/21
f 22/41/13 10/49/13 9/42/13
f 21/40/22 15/25/22 22/41/22
f 15/25/13 25/50/13 22/41/13
f 24/46/23 21/48/23 9/17/23
f 21/48/24 24/46/24 16/45/24
f 26/51/25 11/52/25 17/53/25
f 23/54/26 24/55/27 26/56/28
f 25/57/29 12/58/29 8/59/29
f 27/60/30 11/19/31 28/61/32
f 29/62/33 30/63/33 31/64/33
f 29/62/34 32/65/34 33/66/34
f 34/67/35 32/65/35 35/68/35
f 34/69/36 30/70/36 36/71/36
f 31/72/37 28/73/37 26/74/37
f 31/72/38 37/75/38 32/76/38
f 35/77/39 37/75/39 27/78/39
f 38/79/40 30/80/41 35/77/42
f 29/81/43 36/82/43 30/83/43
f 29/62/44 31/64/44 32/65/44
f 34/67/45 33/66/45 32/65/45
f 34/67/46 35/68/46 30/63/46
f 31/72/47 30/80/47 28/73/47
f 31/72/48 26/74/48 37/75/48
f 35/77/49 32/76/49 37/75/49
f 27/78/50 38/79/40 35/77/42
f 2/2/2 39/84/51 40/85/52
f 2/4/53 41/86/53 5/87/53
f 42/88/54 5/89/54 43/90/54
f 44/91/55 39/92/56 45/93/57
f 44/91/58 29/81/58 39/92/58
f 39/84/59 33/94/60 40/85/61
f 41/86/62 33/95/63 34/96/64
f 44/97/65 34/69/66 36/71/67
f 44/97/68 43/98/68 41/99/68
f 43/90/69 45/100/69 42/88/69
f 42/101/70 45/93/70 7/11/70
f 1/1/1 7/102/71 2/2/2
f 2/4/4 5/87/72 4/5/5
f 5/7/73 42/103/73 6/8/73
f 6/10/74 42/101/74 7/11/74
f 4/13/9 6/104/9 1/14/9
f 8/16/75 24/46/75 9/17/75
f 19/105/76 14/27/76 16/26/76
f 14/27/13 12/106/13 15/25/13
f 12/106/13 25/50/13 15/25/13
f 18/37/17 14/107/17 19/38/17
f 23/43/77 20/108/77 19/44/77
f 22/41/13 25/50/13 10/49/13
f 26/51/78 28/109/78 11/52/78
f 8/110/79 46/111/79 47/112/80 24/55/27
f 37/113/81 26/56/28 24/55/27 47/112/80
f 26/56/82 17/114/82 23/54/82
f 17/114/83 18/115/83 23/54/83
f 18/115/79 20/116/79 23/54/79
f 12/58/84 27/117/84 37/118/84 48/119/84
f 37/118/85 49/120/85 46/121/85 48/119/85
f 8/59/29 10/122/29 25/57/29
f 27/60/30 12/20/86 11/19/31
f 38/123/87 28/61/87 30/124/87
f 27/60/30 28/61/32 38/123/88
f 2/2/2 7/102/71 39/84/51
f 2/4/89 40/125/89 41/86/89
f 39/92/56 7/11/90 45/93/57
f 45/126/91 43/127/91 44/128/91
f 44/91/92 36/82/92 29/81/92
f 39/84/59 29/129/93 33/94/60
f 41/86/62 40/125/94 33/95/63
f 44/97/65 41/99/95 34/69/66
f 43/98/96 5/130/96 41/99/96
f 47/112/97 46/111/97 49/131/97 37/113/97
f 48/119/29 46/121/29 8/59/29 12/58/29
